PathFileType	4	(X/Y/Z)	D:\TRACE\spot_10-12-23\spot_arm_body_motion_3_5-platform.trc
DataRate	CameraRate	NumFrames	NumMarkers	Units	OrigDataRate	OrigDataStartFrame	OrigNumFrames
100.00	100.00	      24	5	mm	100.00	1	      7000
Frame#	Time	Left_Front			Right_Front			Left_Aft			Right_Aft			Post			
		X1	Y1	Z1	X2	Y2	Z2	X3	Y3	Z3	X4	Y4	Z4	X5	Y5	Z5	

1	0.000	-820.24396	123.41849	-602.53357	752.72205	126.72997	-595.53296	-736.57977	-79.14639	517.35663	680.72302	-90.03311	602.53223	-37.36671	905.96674	-784.28955	
2	0.010	-820.29297	123.42068	-602.47510	752.68121	126.72021	-595.56116	-736.61084	-79.18565	517.33136	680.73047	-90.03126	602.57855	-37.41264	905.93671	-784.24011	
3	0.020	-820.27222	123.41660	-602.51135	752.74475	126.71880	-595.52319	-736.60577	-79.17916	517.36700	680.74927	-90.02703	602.55200	-37.45592	906.01532	-784.28888	
4	0.030	-820.28461	123.43536	-602.51764	752.67084	126.71700	-595.55768	-736.62622	-79.19501	517.33563	680.70001	-90.03436	602.54034	-37.35758	906.00067	-784.26770	
5	0.040	-820.30066	123.43058	-602.47729	752.65710	126.72260	-595.55682	-736.58777	-79.15733	517.35022	680.74194	-90.03028	602.54541	-37.45969	906.00647	-784.19983	
6	0.050	-820.25073	123.43259	-602.51282	752.70184	126.73119	-595.54352	-736.60443	-79.11826	517.32269	680.73413	-90.02004	602.56183	-37.40432	905.95801	-784.23303	
7	0.060	-820.27643	123.46087	-602.49896	752.70203	126.74725	-595.55365	-736.56580	-79.19676	517.32361	680.73602	-90.05870	602.56262	-37.50191	905.92480	-784.26599	
8	0.070	-820.32349	123.43819	-602.47235	752.65875	126.71173	-595.55286	-736.57574	-79.17914	517.33612	680.78076	-90.04121	602.57971	-37.38809	905.93439	-784.28009	
9	0.080	-820.27252	123.42297	-602.49548	752.68701	126.71733	-595.56049	-736.61066	-79.12636	517.33191	680.75067	-90.01742	602.53632	-37.37519	905.99268	-784.30078	
10	0.090	-820.25586	123.43284	-602.51410	752.70441	126.75018	-595.54413	-736.54889	-79.15938	517.38477	680.76636	-90.01704	602.52722	-37.36966	906.01862	-784.33557	
11	0.100	-820.20947	123.41491	-602.53192	752.72137	126.74362	-595.54309	-736.57922	-79.14616	517.34070	680.77039	-90.02292	602.54498	-37.37063	906.00494	-784.32611	
12	0.110	-820.27502	123.42519	-602.46521	752.67114	126.71539	-595.55695	-736.59747	-79.18181	517.35406	680.66907	-90.06773	602.53784	-37.43136	906.01941	-784.24548	
13	0.120	-820.25909	123.38858	-602.49695	752.69543	126.74054	-595.55310	-736.61951	-79.18333	517.31995	680.74475	-90.03526	602.53125	-37.42846	905.94257	-784.30920	
14	0.130	-820.28229	123.46680	-602.52765	752.65765	126.73895	-595.52551	-736.57001	-79.14996	517.35144	680.73920	-90.02609	602.56708	-37.47977	905.95575	-784.28168	
15	0.140	-820.27631	123.47372	-602.52588	752.66809	126.73732	-595.53772	-736.58191	-79.17498	517.35767	680.73743	-90.01700	602.55939	-37.32792	905.90747	-784.19989	
16	0.150	-820.27277	123.41521	-602.52777	752.69525	126.73795	-595.53894	-736.57819	-79.16834	517.35480	680.69312	-90.04167	602.51556	-37.41853	905.94238	-784.25470	
17	0.160	-820.29980	123.40672	-602.46661	752.71533	126.75105	-595.54456	-736.58673	-79.14874	517.38391	680.76282	-90.08820	602.54846	-37.43560	905.98694	-784.25952	
18	0.170	-820.26349	123.41225	-602.47443	752.68195	126.70948	-595.53381	-736.59650	-79.12314	517.34814	680.73309	-90.02919	602.53302	-37.45612	906.02515	-784.18683	
19	0.180	-820.24225	123.42503	-602.49567	752.71240	126.73856	-595.52893	-736.55865	-79.14893	517.34674	680.76630	-90.04498	602.55646	-37.36399	905.99316	-784.25952	
20	0.190	-820.25598	123.43914	-602.49536	752.70245	126.73083	-595.54871	-736.57983	-79.14970	517.34625	680.75195	-90.00331	602.56451	-37.37595	906.04065	-784.26910	
21	0.200	-820.21143	123.40555	-602.48694	752.70520	126.75964	-595.54962	-736.57922	-79.16185	517.32764	680.75507	-90.04442	602.54816	-37.35870	906.00446	-784.29419	
22	0.210	-820.25092	123.41125	-602.47748	752.68390	126.76295	-595.54523	-736.53864	-79.21085	517.30219	680.72809	-90.04247	602.57526	-37.38831	905.98181	-784.29437	
23	0.220	-820.26660	123.41262	-602.45795	752.66772	126.72319	-595.55804	-736.58807	-79.17036	517.38867	680.75519	-90.04391	602.58411	-37.41381	905.95398	-784.34900	
24	0.230	-820.28552	123.40918	-602.47028	752.70422	126.71965	-595.55408	-736.60059	-79.18687	517.33875	680.73987	-90.04850	602.54175	-37.41257	905.94360	-784.32178	
